<?xml version="1.0" encoding="utf-8"?>
<!-- Generator: Adobe Illustrator 15.1.0, SVG Export Plug-In . SVG Version: 6.00 Build 0)  -->
<!DOCTYPE svg PUBLIC "-//W3C//DTD SVG 1.1//EN" "http://www.w3.org/Graphics/SVG/1.1/DTD/svg11.dtd">
<svg version="1.1" id="svg-source" xmlns="http://www.w3.org/2000/svg" xmlns:xlink="http://www.w3.org/1999/xlink" x="0px" y="0px"
	 width="100px" height="100px" viewBox="0 0 100 100" enable-background="new 0 0 100 100" xml:space="preserve">
<g id="photo-camera">
	<path d="M63.615,42.384c-7.324,0-13.277,5.956-13.277,13.282c0,7.322,5.953,13.277,13.277,13.277
		c7.326,0,13.281-5.955,13.281-13.277C76.896,48.343,70.941,42.384,63.615,42.384z M63.615,64.256c-4.737,0-8.591-3.852-8.591-8.59
		c0-4.741,3.854-8.595,8.591-8.595c4.741,0,8.594,3.854,8.594,8.595C72.209,60.404,68.356,64.256,63.615,64.256z M96.44,20.693
		v-10.8c0-1.291-1.05-2.341-2.344-2.341H68.294c-1.294,0-2.347,1.05-2.347,2.341v8.987H29.619c0.078-0.415,0.125-0.834,0.125-1.272
		c0-3.287-2.332-5.955-5.194-5.955h-7.86c-2.862,0-5.192,2.668-5.192,5.955c0,0.441,0.046,0.857,0.125,1.272H8.594
		C3.853,18.881,0,23.08,0,28.244v54.838c0,5.168,3.853,9.365,8.594,9.365h82.812c4.741,0,8.594-4.197,8.594-9.365V28.244
		C100,25.134,98.584,22.394,96.44,20.693z M70.638,12.24h21.118v6.641H70.638V12.24z M16.69,16.341l7.845-0.003
		c0.146,0.041,0.522,0.5,0.522,1.268c0,0.76-0.366,1.223-0.516,1.272h-7.833c-0.145-0.044-0.522-0.497-0.522-1.27
		C16.185,16.841,16.562,16.379,16.69,16.341z M95.31,83.082c0,2.537-1.788,4.678-3.903,4.678H8.594c-2.12,0-3.906-2.141-3.906-4.678
		v-7.561h7.225c1.294,0,2.344-1.053,2.344-2.344c0-1.297-1.05-2.34-2.344-2.34H4.688v-3.912h12.074c1.297,0,2.344-1.051,2.344-2.348
		c0-1.285-1.047-2.34-2.344-2.34H4.688v-4.232h16.209c1.297,0,2.347-1.047,2.347-2.344c0-1.293-1.05-2.34-2.347-2.34H4.688V28.244
		c0-2.538,1.787-4.676,3.906-4.676h82.812c2.115,0,3.903,2.138,3.903,4.676V83.082z M29.056,32.031H17.422
		c-3.685,0-6.682,3.375-6.682,7.517c0,4.143,2.997,7.518,6.682,7.518h11.633c3.685,0,6.688-3.375,6.688-7.518
		C35.744,35.406,32.741,32.031,29.056,32.031z M29.056,42.381H17.422c-1.079,0-1.994-1.297-1.994-2.83
		c0-1.532,0.916-2.829,1.994-2.829h11.633c1.085,0,2,1.297,2,2.829C31.056,41.081,30.141,42.381,29.056,42.381z M63.615,32.031
		c-13.031,0-23.628,10.604-23.628,23.635s10.597,23.631,23.628,23.631S87.25,68.693,87.25,55.666
		C87.253,42.635,76.646,32.031,63.615,32.031z M63.615,74.613c-10.446,0-18.943-8.5-18.943-18.945
		c0-10.45,8.497-18.943,18.943-18.943c10.451,0,18.947,8.498,18.947,18.943C82.565,66.113,74.066,74.613,63.615,74.613z"/>
</g>
</svg>
