<?xml version="1.0" standalone="no"?>
<!DOCTYPE svg PUBLIC "-//W3C//DTD SVG 1.1//EN" "http://www.w3.org/Graphics/SVG/1.1/DTD/svg11.dtd">
<svg width="800px" height="600px" version="1.1" xmlns="http://www.w3.org/2000/svg" xmlns:xlink="http://www.w3.org/1999/xlink" xml:space="preserve" style="fill-rule:evenodd;clip-rule:evenodd;stroke-linejoin:round;stroke-miterlimit:1.41421;">
    <g>
        <g id="Cog">
            <g>
                <path id="gear1" d="M190.403,86.6277C183.654,85.9629 176.856,85.9629 170.107,86.6277L167.057,102.655C160.596,103.635 154.265,105.331 148.18,107.713L137.525,95.3579C131.348,98.1568 125.461,101.556 119.948,105.506L125.32,120.911C120.215,124.99 115.58,129.625 111.501,134.73L96.0967,129.357C92.1464,134.87 88.7474,140.757 85.9485,146.935L98.3035,157.589C95.9218,163.674 94.2252,170.006 93.2453,176.467L77.2183,179.516C76.5535,186.265 76.5535,193.063 77.2183,199.813L93.2453,202.862C94.2252,209.323 95.9218,215.654 98.3035,221.74L85.9485,232.394C88.7474,238.571 92.1464,244.459 96.0967,249.971L111.501,244.599C115.58,249.704 120.215,254.339 125.32,258.418L119.948,273.823C125.461,277.773 131.348,281.172 137.525,283.971L148.18,271.616C154.265,273.998 160.596,275.694 167.057,276.674L170.107,292.701C176.856,293.366 183.654,293.366 190.403,292.701L193.453,276.674C199.914,275.694 206.245,273.998 212.33,271.616L222.985,283.971C229.162,281.172 235.049,277.773 240.562,273.823L235.19,258.418C240.295,254.339 244.93,249.704 249.009,244.599L264.413,249.971C268.364,244.459 271.763,238.571 274.562,232.394L262.207,221.74C264.588,215.654 266.285,209.323 267.265,202.862L283.292,199.813C283.956,193.063 283.956,186.265 283.292,179.516L267.265,176.467C266.285,170.006 264.588,163.674 262.207,157.589L274.562,146.935C271.763,140.757 268.364,134.87 264.413,129.357L249.009,134.73C244.93,129.625 240.295,124.99 235.19,120.911L240.562,105.506C235.049,101.556 229.162,98.1568 222.985,95.3579L212.33,107.713C206.245,105.331 199.914,103.635 193.453,102.655L190.403,86.6277ZM180.255,168.957C191.691,168.957 200.962,178.228 200.962,189.664C200.962,201.101 191.691,210.371 180.255,210.371C168.819,210.371 159.548,201.101 159.548,189.664C159.548,178.228 168.819,168.957 180.255,168.957Z" style="fill:rgb(235,235,235);"/>
            </g>
            <g>
                <path id="gear2" d="M360.969,171.196C355.193,170.627 349.376,170.627 343.601,171.196L340.991,184.91C335.463,185.749 330.045,187.201 324.838,189.239L315.721,178.667C310.435,181.062 305.397,183.97 300.68,187.35L305.277,200.532C300.908,204.023 296.942,207.989 293.452,212.357L280.27,207.76C276.89,212.477 273.981,217.515 271.586,222.801L282.158,231.918C280.12,237.125 278.669,242.543 277.83,248.072L264.116,250.681C263.547,256.457 263.547,262.274 264.116,268.049L277.83,270.659C278.669,276.187 280.12,281.605 282.158,286.812L271.586,295.929C273.981,301.215 276.89,306.253 280.27,310.97L293.452,306.373C296.942,310.741 300.908,314.708 305.277,318.198L300.68,331.38C305.397,334.76 310.435,337.669 315.721,340.064L324.838,329.492C330.045,331.53 335.463,332.981 340.991,333.82L343.601,347.534C349.376,348.103 355.193,348.103 360.969,347.534L363.578,333.82C369.107,332.981 374.525,331.53 379.732,329.492L388.849,340.064C394.135,337.669 399.173,334.76 403.89,331.38L399.293,318.198C403.661,314.708 407.627,310.741 411.118,306.373L424.3,310.97C427.68,306.253 430.588,301.215 432.983,295.929L422.411,286.812C424.449,281.605 425.901,276.187 426.74,270.659L440.454,268.049C441.023,262.274 441.023,256.457 440.454,250.681L426.74,248.072C425.901,242.543 424.449,237.125 422.411,231.918L432.983,222.801C430.588,217.515 427.68,212.477 424.3,207.76L411.118,212.357C407.627,207.989 403.661,204.023 399.293,200.532L403.89,187.35C399.173,183.97 394.135,181.062 388.849,178.667L379.732,189.239C374.525,187.201 369.107,185.749 363.578,184.91L360.969,171.196ZM352.285,241.646C362.071,241.646 370.004,249.579 370.004,259.365C370.004,269.151 362.071,277.084 352.285,277.084C342.499,277.084 334.566,269.151 334.566,259.365C334.566,249.579 342.499,241.646 352.285,241.646Z" style="fill:rgb(0,162,255);"/>
            </g>
            <g>
                <path id="gear3" d="M483.655,87.0884C478.676,86.598 473.661,86.598 468.681,87.0884L466.432,98.9125C461.665,99.6355 456.994,100.887 452.505,102.644L444.644,93.5292C440.087,95.5942 435.743,98.1019 431.676,101.016L435.64,112.381C431.873,115.39 428.454,118.81 425.444,122.576L414.08,118.613C411.165,122.68 408.658,127.023 406.593,131.581L415.708,139.441C413.951,143.931 412.699,148.602 411.976,153.368L400.152,155.618C399.661,160.597 399.661,165.613 400.152,170.592L411.976,172.842C412.699,177.608 413.951,182.279 415.708,186.769L406.593,194.629C408.658,199.187 411.165,203.53 414.08,207.597L425.444,203.634C428.454,207.4 431.873,210.82 435.64,213.829L431.676,225.194C435.743,228.108 440.087,230.616 444.644,232.681L452.505,223.566C456.994,225.323 461.665,226.574 466.432,227.297L468.681,239.122C473.661,239.612 478.676,239.612 483.655,239.122L485.905,227.297C490.672,226.574 495.343,225.323 499.832,223.566L507.693,232.681C512.25,230.616 516.594,228.108 520.661,225.194L516.697,213.829C520.463,210.82 523.883,207.4 526.892,203.634L538.257,207.597C541.172,203.53 543.679,199.187 545.744,194.629L536.629,186.769C538.386,182.279 539.638,177.608 540.361,172.842L552.185,170.592C552.675,165.613 552.675,160.597 552.185,155.618L540.361,153.368C539.638,148.602 538.386,143.931 536.629,139.441L545.744,131.581C543.679,127.023 541.172,122.68 538.257,118.613L526.892,122.576C523.883,118.81 520.463,115.39 516.697,112.381L520.661,101.016C516.594,98.1019 512.25,95.5942 507.693,93.5292L499.832,102.644C495.343,100.887 490.672,99.6355 485.905,98.9125L483.655,87.0884ZM476.168,147.828C484.606,147.828 491.445,154.668 491.445,163.105C491.445,171.542 484.606,178.382 476.168,178.382C467.731,178.382 460.892,171.542 460.892,163.105C460.892,154.668 467.731,147.828 476.168,147.828Z" style="fill:rgb(0,204,115);"/>
            </g>
            <g>
                <path d="M85.2827,431.987L95.3843,431.354C95.6031,432.995 96.0484,434.245 96.7202,435.104C97.814,436.495 99.3765,437.19 101.408,437.19C102.923,437.19 104.091,436.834 104.912,436.124C105.732,435.413 106.142,434.588 106.142,433.651C106.142,432.76 105.751,431.963 104.97,431.26C104.189,430.557 102.376,429.893 99.5327,429.268C94.8765,428.221 91.5562,426.831 89.5718,425.096C87.5718,423.362 86.5718,421.151 86.5718,418.463C86.5718,416.698 87.0835,415.03 88.107,413.459C89.1304,411.889 90.6695,410.655 92.7242,409.756C94.7788,408.858 97.5952,408.409 101.173,408.409C105.564,408.409 108.912,409.225 111.216,410.858C113.521,412.491 114.892,415.088 115.33,418.651L105.322,419.237C105.056,417.69 104.498,416.565 103.646,415.862C102.794,415.159 101.619,414.807 100.119,414.807C98.8843,414.807 97.9546,415.069 97.3296,415.592C96.7046,416.116 96.3921,416.752 96.3921,417.502C96.3921,418.049 96.6499,418.541 97.1656,418.979C97.6656,419.432 98.8531,419.854 100.728,420.245C105.369,421.245 108.693,422.256 110.701,423.28C112.709,424.303 114.169,425.573 115.084,427.088C115.998,428.604 116.455,430.299 116.455,432.174C116.455,434.377 115.845,436.409 114.626,438.268C113.408,440.127 111.705,441.538 109.517,442.499C107.33,443.459 104.572,443.94 101.244,443.94C95.3999,443.94 91.3531,442.815 89.1031,440.565C86.8531,438.315 85.5796,435.456 85.2827,431.987Z" style="fill:black;fill-rule:nonzero;"/>
                <path d="M121.212,452.823L121.212,418.463L130.142,418.463L130.142,422.143C131.376,420.596 132.509,419.549 133.541,419.002C134.931,418.268 136.47,417.901 138.158,417.901C141.486,417.901 144.06,419.174 145.88,421.721C147.701,424.268 148.611,427.416 148.611,431.166C148.611,435.307 147.619,438.467 145.634,440.647C143.65,442.827 141.142,443.916 138.111,443.916C136.642,443.916 135.302,443.666 134.091,443.166C132.88,442.666 131.798,441.924 130.845,440.94L130.845,452.823L121.212,452.823ZM130.775,430.979C130.775,432.948 131.189,434.409 132.017,435.362C132.845,436.315 133.892,436.791 135.158,436.791C136.267,436.791 137.197,436.334 137.947,435.42C138.697,434.506 139.072,432.956 139.072,430.768C139.072,428.752 138.681,427.272 137.9,426.327C137.119,425.381 136.166,424.909 135.041,424.909C133.822,424.909 132.806,425.385 131.994,426.338C131.181,427.291 130.775,428.838 130.775,430.979Z" style="fill:black;fill-rule:nonzero;"/>
                <path d="M153.533,408.995L163.072,408.995L163.072,415.487L153.533,415.487L153.533,408.995ZM153.533,418.463L163.072,418.463L163.072,443.354L153.533,443.354L153.533,418.463Z" style="fill:black;fill-rule:nonzero;"/>
                <path d="M169.166,418.463L178.048,418.463L178.048,422.518C179.376,420.862 180.72,419.678 182.08,418.967C183.439,418.256 185.095,417.901 187.048,417.901C189.689,417.901 191.755,418.686 193.248,420.256C194.74,421.827 195.486,424.252 195.486,427.534L195.486,443.354L185.9,443.354L185.9,429.666C185.9,428.104 185.611,426.999 185.033,426.35C184.455,425.702 183.642,425.377 182.595,425.377C181.439,425.377 180.501,425.815 179.783,426.69C179.064,427.565 178.705,429.135 178.705,431.401L178.705,443.354L169.166,443.354L169.166,418.463Z" style="fill:black;fill-rule:nonzero;"/>
                <path d="M201.181,418.463L210.064,418.463L210.064,422.518C211.392,420.862 212.736,419.678 214.095,418.967C215.455,418.256 217.111,417.901 219.064,417.901C221.705,417.901 223.771,418.686 225.263,420.256C226.755,421.827 227.501,424.252 227.501,427.534L227.501,443.354L217.916,443.354L217.916,429.666C217.916,428.104 217.626,426.999 217.048,426.35C216.47,425.702 215.658,425.377 214.611,425.377C213.455,425.377 212.517,425.815 211.798,426.69C211.08,427.565 210.72,429.135 210.72,431.401L210.72,443.354L201.181,443.354L201.181,418.463Z" style="fill:black;fill-rule:nonzero;"/>
                <path d="M233.548,408.995L243.087,408.995L243.087,415.487L233.548,415.487L233.548,408.995ZM233.548,418.463L243.087,418.463L243.087,443.354L233.548,443.354L233.548,418.463Z" style="fill:black;fill-rule:nonzero;"/>
                <path d="M249.181,418.463L258.064,418.463L258.064,422.518C259.392,420.862 260.736,419.678 262.095,418.967C263.455,418.256 265.111,417.901 267.064,417.901C269.705,417.901 271.771,418.686 273.263,420.256C274.755,421.827 275.501,424.252 275.501,427.534L275.501,443.354L265.916,443.354L265.916,429.666C265.916,428.104 265.626,426.999 265.048,426.35C264.47,425.702 263.658,425.377 262.611,425.377C261.455,425.377 260.517,425.815 259.798,426.69C259.08,427.565 258.72,429.135 258.72,431.401L258.72,443.354L249.181,443.354L249.181,418.463Z" style="fill:black;fill-rule:nonzero;"/>
                <path d="M298.517,418.463L307.447,418.463L307.447,441.971L307.47,443.073C307.47,444.635 307.138,446.124 306.474,447.538C305.81,448.952 304.927,450.096 303.826,450.971C302.724,451.846 301.326,452.479 299.63,452.87C297.935,453.26 295.994,453.456 293.806,453.456C288.806,453.456 285.373,452.706 283.505,451.206C281.638,449.706 280.705,447.698 280.705,445.182C280.705,444.87 280.72,444.448 280.751,443.916L290.009,444.971C290.244,445.831 290.603,446.424 291.087,446.752C291.791,447.237 292.673,447.479 293.736,447.479C295.111,447.479 296.138,447.112 296.818,446.377C297.498,445.643 297.837,444.362 297.837,442.534L297.837,438.76C296.9,439.87 295.962,440.674 295.025,441.174C293.556,441.956 291.97,442.346 290.267,442.346C286.939,442.346 284.251,440.893 282.205,437.987C280.751,435.924 280.025,433.198 280.025,429.807C280.025,425.932 280.962,422.979 282.837,420.948C284.712,418.916 287.166,417.901 290.197,417.901C292.134,417.901 293.732,418.229 294.99,418.885C296.248,419.541 297.423,420.627 298.517,422.143L298.517,418.463ZM289.541,430.534C289.541,432.331 289.923,433.663 290.689,434.53C291.455,435.397 292.462,435.831 293.712,435.831C294.9,435.831 295.896,435.381 296.701,434.483C297.505,433.584 297.908,432.229 297.908,430.416C297.908,428.604 297.486,427.217 296.642,426.256C295.798,425.295 294.767,424.815 293.548,424.815C292.33,424.815 291.357,425.256 290.63,426.139C289.904,427.022 289.541,428.487 289.541,430.534Z" style="fill:black;fill-rule:nonzero;"/>
                <path d="M347.126,430.909L347.126,423.76L363.533,423.76L363.533,438.409C360.392,440.549 357.615,442.006 355.201,442.78C352.787,443.553 349.923,443.94 346.611,443.94C342.533,443.94 339.209,443.245 336.638,441.854C334.068,440.463 332.076,438.393 330.662,435.643C329.248,432.893 328.541,429.737 328.541,426.174C328.541,422.424 329.314,419.163 330.861,416.389C332.408,413.616 334.673,411.51 337.658,410.073C339.986,408.963 343.119,408.409 347.056,408.409C350.853,408.409 353.693,408.752 355.576,409.44C357.459,410.127 359.021,411.194 360.263,412.639C361.505,414.084 362.439,415.916 363.064,418.135L352.822,419.963C352.4,418.666 351.685,417.674 350.677,416.987C349.669,416.299 348.384,415.956 346.822,415.956C344.494,415.956 342.638,416.764 341.255,418.381C339.873,419.999 339.181,422.557 339.181,426.057C339.181,429.776 339.88,432.432 341.279,434.026C342.677,435.62 344.626,436.416 347.126,436.416C348.314,436.416 349.447,436.245 350.525,435.901C351.603,435.557 352.837,434.971 354.228,434.143L354.228,430.909L347.126,430.909Z" style="fill:black;fill-rule:nonzero;"/>
                <path d="M396.837,433.276L377.712,433.276C377.884,434.807 378.298,435.948 378.955,436.698C379.876,437.776 381.08,438.315 382.564,438.315C383.501,438.315 384.392,438.081 385.236,437.612C385.751,437.315 386.306,436.791 386.9,436.041L396.298,436.909C394.861,439.409 393.126,441.202 391.095,442.288C389.064,443.374 386.15,443.916 382.353,443.916C379.056,443.916 376.462,443.452 374.572,442.522C372.681,441.592 371.115,440.116 369.873,438.092C368.63,436.069 368.009,433.69 368.009,430.956C368.009,427.065 369.255,423.916 371.748,421.51C374.24,419.104 377.681,417.901 382.072,417.901C385.634,417.901 388.447,418.44 390.509,419.518C392.572,420.596 394.142,422.159 395.22,424.206C396.298,426.252 396.837,428.916 396.837,432.198L396.837,433.276ZM387.134,428.706C386.947,426.862 386.451,425.541 385.646,424.745C384.841,423.948 383.783,423.549 382.47,423.549C380.955,423.549 379.744,424.151 378.837,425.354C378.259,426.104 377.892,427.221 377.736,428.706L387.134,428.706Z" style="fill:black;fill-rule:nonzero;"/>
                <path d="M409.916,426.526L400.798,425.565C401.142,423.971 401.638,422.717 402.287,421.803C402.935,420.889 403.869,420.096 405.087,419.424C405.962,418.94 407.166,418.565 408.697,418.299C410.228,418.034 411.884,417.901 413.666,417.901C416.525,417.901 418.822,418.061 420.556,418.381C422.291,418.702 423.736,419.37 424.892,420.385C425.705,421.088 426.345,422.084 426.814,423.374C427.283,424.663 427.517,425.893 427.517,427.065L427.517,438.057C427.517,439.229 427.591,440.147 427.74,440.811C427.888,441.475 428.212,442.323 428.712,443.354L419.759,443.354C419.4,442.713 419.166,442.225 419.056,441.889C418.947,441.553 418.837,441.026 418.728,440.307C417.478,441.51 416.236,442.37 415.001,442.885C413.314,443.573 411.353,443.916 409.119,443.916C406.15,443.916 403.896,443.229 402.357,441.854C400.818,440.479 400.048,438.784 400.048,436.768C400.048,434.877 400.603,433.323 401.712,432.104C402.822,430.885 404.869,429.979 407.853,429.385C411.431,428.666 413.751,428.163 414.814,427.874C415.876,427.584 417.001,427.206 418.189,426.737C418.189,425.565 417.947,424.745 417.462,424.276C416.978,423.807 416.126,423.573 414.908,423.573C413.345,423.573 412.173,423.823 411.392,424.323C410.783,424.713 410.291,425.448 409.916,426.526ZM418.189,431.541C416.876,432.01 415.509,432.424 414.087,432.784C412.15,433.299 410.923,433.807 410.408,434.307C409.876,434.823 409.611,435.409 409.611,436.065C409.611,436.815 409.873,437.428 410.396,437.905C410.919,438.381 411.689,438.62 412.705,438.62C413.767,438.62 414.755,438.362 415.669,437.846C416.584,437.331 417.232,436.702 417.615,435.959C417.998,435.217 418.189,434.252 418.189,433.065L418.189,431.541Z" style="fill:black;fill-rule:nonzero;"/>
                <path d="M433.33,418.463L442.259,418.463L442.259,422.541C443.119,420.776 444.005,419.561 444.919,418.897C445.834,418.233 446.962,417.901 448.306,417.901C449.712,417.901 451.251,418.338 452.923,419.213L449.97,426.01C448.845,425.541 447.955,425.307 447.298,425.307C446.048,425.307 445.08,425.823 444.392,426.854C443.408,428.307 442.916,431.026 442.916,435.01L442.916,443.354L433.33,443.354L433.33,418.463Z" style="fill:black;fill-rule:nonzero;"/>
                <path d="M454.048,436.463L463.517,435.573C463.908,436.698 464.455,437.502 465.158,437.987C465.861,438.471 466.798,438.713 467.97,438.713C469.251,438.713 470.244,438.44 470.947,437.893C471.494,437.487 471.767,436.979 471.767,436.37C471.767,435.682 471.408,435.151 470.689,434.776C470.173,434.51 468.806,434.182 466.587,433.791C463.275,433.213 460.974,432.678 459.685,432.186C458.396,431.694 457.31,430.862 456.427,429.69C455.544,428.518 455.103,427.182 455.103,425.682C455.103,424.041 455.58,422.627 456.533,421.44C457.486,420.252 458.798,419.366 460.47,418.78C462.142,418.194 464.384,417.901 467.197,417.901C470.166,417.901 472.357,418.127 473.771,418.581C475.185,419.034 476.365,419.737 477.31,420.69C478.255,421.643 479.041,422.932 479.666,424.557L470.619,425.448C470.384,424.651 469.994,424.065 469.447,423.69C468.697,423.19 467.791,422.94 466.728,422.94C465.65,422.94 464.865,423.131 464.373,423.514C463.88,423.897 463.634,424.362 463.634,424.909C463.634,425.518 463.947,425.979 464.572,426.291C465.197,426.604 466.556,426.885 468.65,427.135C471.822,427.495 474.181,427.995 475.728,428.635C477.275,429.276 478.459,430.19 479.279,431.377C480.099,432.565 480.509,433.87 480.509,435.291C480.509,436.729 480.076,438.127 479.209,439.487C478.341,440.846 476.974,441.928 475.107,442.733C473.24,443.538 470.697,443.94 467.478,443.94C462.931,443.94 459.693,443.291 457.763,441.995C455.834,440.698 454.595,438.854 454.048,436.463Z" style="fill:black;fill-rule:nonzero;"/>
            </g>
            <g>
                <path id="star"  d="M626.192,217.836L659.056,318.983L765.408,318.983L679.368,381.495L712.232,482.642L626.192,420.13L540.151,482.642L573.015,381.495L486.975,318.983L593.327,318.983L626.192,217.836Z" style="fill:rgb(255,73,107);"/>
            </g>
        </g>
    </g>
</svg>
